<?xml version="1.0" encoding="UTF-8"?>
<!DOCTYPE svg PUBLIC "-//W3C//DTD SVG 1.1//EN" "http://www.w3.org/Graphics/SVG/1.1/DTD/svg11.dtd">
<!-- Creator: CorelDRAW -->
<svg xmlns="http://www.w3.org/2000/svg" xml:space="preserve" width="3.5in" height="2in" version="1.1" style="shape-rendering:geometricPrecision; text-rendering:geometricPrecision; image-rendering:optimizeQuality; fill-rule:evenodd; clip-rule:evenodd"
viewBox="0 0 3500 2000"
 xmlns:xlink="http://www.w3.org/1999/xlink"
 xmlns:xodm="http://www.corel.com/coreldraw/odm/2003">
 <defs>
  <style type="text/css">
   <![CDATA[
    .fil0 {fill:none}
    .fil1 {fill:#727272}
    .fil3 {fill:url(#id0)}
    .fil2 {fill:url(#id1)}
   ]]>
  </style>
  <linearGradient id="id0" gradientUnits="userSpaceOnUse" x1="3146.91" y1="645.34" x2="3466.44" y2="645.34">
   <stop offset="0" style="stop-opacity:1; stop-color:#42A5D4"/>
   <stop offset="1" style="stop-opacity:1; stop-color:#317FA3"/>
  </linearGradient>
  <linearGradient id="id1" gradientUnits="userSpaceOnUse" xlink:href="#id0" x1="343.41" y1="431.78" x2="542.58" y2="431.78">
  </linearGradient>
 </defs>
 <g id="Layer_x0020_1">
  <metadata id="CorelCorpID_0Corel-Layer"/>
  <rect class="fil0" x="1996.25" y="1836.02" width="152.42" height="86.19"/>
  <rect class="fil0" x="1996.25" y="1836.02" width="152.42" height="86.19"/>
  <polygon class="fil1" points="314.06,582.9 483.36,582.95 245.19,1421.22 76.14,1421.22 "/>
  <polygon class="fil2" points="542.58,372.71 512.71,490.86 343.41,490.8 376.75,372.83 "/>
  <path class="fil1" d="M3178.24 679.99l86.19 85.77 -211.61 215.14 184.8 440.34 -170.23 0 -104.9 -267.21 -21.87 -61.24 -320.87 328.22 -170.99 0 433.04 -440.11 -167.89 -397.95 172.06 0 75.95 194.86c13.9,36.58 24.69,66.29 31.68,89.63 32.86,-33.15 62.17,-63.11 88.49,-89.88l96.14 -97.57zm-1234.47 741.5l140.04 0c67.19,-8.88 128.49,-30.63 183.93,-65.16 74.49,-46.39 147.09,-130.97 193.15,-215.01l-151.57 -0.03c-37.83,59.41 -78.52,102.61 -122.43,129.67 -43.6,27.03 -91.15,40.56 -142.3,40.56 -68.68,0 -119.47,-24.13 -151.91,-72.12 -32.7,-48 -38.72,-117.44 -18.77,-207.86l614.85 0c5.13,-16.43 8.88,-28.91 11.19,-37.11 38.02,-136.02 32.55,-241.53 -16.18,-316.59 -28.69,-44.13 -67.98,-75.25 -117.86,-93.37l-254.11 0c-30.24,8.96 -59.61,21.08 -88.1,36.36 -30.24,16.23 -59.52,36.02 -87.82,59.41 -92.69,76.35 -158.33,184.01 -197.06,322.39 -7.32,26.18 -12.99,51.24 -16.96,75.17 -16.41,98.33 -4.59,177.39 35.48,236.91 39.68,59.21 101.82,94.81 186.43,106.78zm-372 -430.36l-120.54 -69.59 153.15 -548.2 139.98 0 -172.59 617.79 -120.17 430.19 -139.99 0 139.62 -499.78 120.54 69.59zm342.15 -74.13l459.73 0c13.33,-69.47 10.09,-121.44 -9.07,-156.17 -29.22,-53.83 -79.48,-80.85 -150.28,-80.85 -64.15,0 -123.98,21.48 -179.72,64.43 -55.49,42.95 -95.71,100.47 -120.65,172.59zm-1181.91 504.23l110.54 0c45.49,-7.53 91.99,-23.9 139.37,-49.01 67.87,-36.05 126.35,-87.77 175.39,-155.1 49.15,-67.61 85.48,-143.43 108.99,-227.5 16,-57.21 23.76,-110.93 23.39,-161.35l-190.18 -109.8c9.35,9.92 17.7,21.56 25.03,34.92 28.58,52.26 28.1,130.72 -1.27,235.73 -30.78,110.03 -75.48,191.14 -134.44,243.65 -58.68,52.51 -119.05,78.74 -181.07,78.74 -60.99,0 -105.86,-25.45 -134.63,-76.09 -28.52,-50.64 -28.1,-128.85 1.46,-234.63 29.68,-106.05 75.02,-186.66 136.47,-242.35 61.07,-55.41 121.39,-83.25 180.76,-83.25 14.43,0 27.96,1.52 40.59,4.54 26.32,6.31 48.7,19.22 67.11,38.75l190.18 109.8c-0.14,-18.97 -1.41,-37.48 -3.83,-55.52 -9.16,-65.75 -35.43,-116.9 -79.14,-152.98 -18.12,-15.07 -38.53,-26.97 -61.22,-35.76l-224.84 0c-10.71,3.75 -21.17,8.09 -31.31,12.96 -43.77,20.94 -86.53,52.5 -128.2,94.38l30.32 -108.42 -127.27 0 -264.7 947.67 139.99 0 57.89 -208.22c15.47,29.96 38.81,54.62 70.43,74.24 18.69,11.67 40.1,19.87 64.23,24.61z"/>
  <polygon class="fil3" points="3440.61,489.46 3466.44,489.46 3402.24,638.52 3332.15,801.23 3239.53,708.6 3146.9,615.98 3309.61,545.89 "/>
 </g>
</svg>
